<?xml version="1.0" encoding="UTF-8" standalone="no"?>
<!-- Created with Inkscape (http://www.inkscape.org/) -->

<svg
   xmlns:dc="http://purl.org/dc/elements/1.1/"
   xmlns:cc="http://creativecommons.org/ns#"
   xmlns:rdf="http://www.w3.org/1999/02/22-rdf-syntax-ns#"
   xmlns:svg="http://www.w3.org/2000/svg"
   xmlns="http://www.w3.org/2000/svg"
   xmlns:sodipodi="http://sodipodi.sourceforge.net/DTD/sodipodi-0.dtd"
   xmlns:inkscape="http://www.inkscape.org/namespaces/inkscape"
   width="600"
   height="421.72"
   id="svg2"
   version="1.1"
   inkscape:version="0.48.1 "
   sodipodi:docname="Map Gangwon-do.svg">
  <defs
     id="defs4" />
  <sodipodi:namedview
     id="base"
     pagecolor="#ffffff"
     bordercolor="#666666"
     borderopacity="1.0"
     inkscape:pageopacity="0.0"
     inkscape:pageshadow="2"
     inkscape:zoom="1.3297186"
     inkscape:cx="269.91074"
     inkscape:cy="208.49491"
     inkscape:document-units="px"
     inkscape:current-layer="layer4"
     showgrid="false"
     showguides="true"
     inkscape:guide-bbox="true"
     inkscape:window-width="1440"
     inkscape:window-height="878"
     inkscape:window-x="-8"
     inkscape:window-y="-8"
     inkscape:window-maximized="1" />
  <metadata
     id="metadata7">
    <rdf:RDF>
      <cc:Work
         rdf:about="">
        <dc:format>image/svg+xml</dc:format>
        <dc:type
           rdf:resource="http://purl.org/dc/dcmitype/StillImage" />
        <dc:title></dc:title>
      </cc:Work>
    </rdf:RDF>
  </metadata>
  <g
     inkscape:label="Layer 1"
     inkscape:groupmode="layer"
     id="layer1"
     style="display:inline"
     transform="translate(0,-630.64218)" />
  <g
     inkscape:groupmode="layer"
     id="layer2"
     inkscape:label="Layer2"
     style="opacity:0.93999999;display:inline"
     transform="translate(0,-630.64218)" />
  <g
     inkscape:groupmode="layer"
     id="layer4"
     inkscape:label="Layer3"
     style="display:inline"
     transform="translate(0,-630.64218)">
    <g
       id="g4345"
       transform="matrix(1.0033445,0,0,1.0033445,-1.3047802,628.20018)">
      <g
         transform="translate(18.333903,-126.30022)"
         id="g4262"
         style="opacity:0.93999999;display:inline">
        <g
           style="display:inline"
           id="g4246">
          <rect
             y="485.44913"
             x="289.30685"
             height="63.599194"
             width="291.65967"
             id="rect3768"
             style="fill:#f0f0f0;fill-opacity:1;stroke:none;display:inline" />
          <rect
             y="129.09863"
             x="-17.033472"
             height="419.94971"
             width="335.13058"
             id="rect3766"
             style="fill:#f0f0f0;fill-opacity:1;stroke:none;display:inline" />
          <path
             sodipodi:nodetypes="cccccccc"
             inkscape:connector-curvature="0"
             id="path2996"
             d="m 316.03981,128.73339 40.94191,88.93184 124.31895,164.54559 62.95653,74.30708 34.6962,32.98074 1.78996,-1.7301 0,-359.03515 z"
             style="color:#000000;fill:#c6ecff;fill-opacity:1;stroke:none;stroke-width:0.93862677px;marker:none;visibility:visible;display:inline;overflow:visible;enable-background:accumulate" />
        </g>
        <g
           id="g4253"
           transform="translate(-18,128)">
          <g
             transform="matrix(1.0007914,0,0,1.0007914,-44.287981,-30.730728)"
             id="g3922">
            <path
               style="color:#000000;fill:none;stroke:#838383;stroke-width:1px;stroke-linecap:butt;stroke-linejoin:miter;stroke-miterlimit:4;stroke-opacity:1;stroke-dasharray:none;stroke-dashoffset:0;marker:none;visibility:visible;display:inline;overflow:visible;enable-background:accumulate"
               d="m 379.31228,32.613188 c 0,0 1.01015,2.525381 -5.05076,6.565991 -6.06092,4.04061 -10.10153,4.04061 -10.10153,8.586297 0,4.545686 2.02031,15.152288 -4.04061,25.253813 -6.06091,10.101526 -10.10152,16.162441 -11.61675,17.67767 -1.51523,1.515229 -5.05076,1.010152 -12.12183,4.545686 -7.07107,3.535534 -13.13199,7.576145 -16.66752,10.101525 -3.53553,2.52538 -30.80965,9.59645 -35.35534,6.56599 -4.54568,-3.03046 -14.14213,2.52538 -15.15229,-1.51523 -1.01015,-4.04061 -10.6066,-3.03045 -10.6066,-3.03045 0,0 -3.03046,-2.02031 -8.08122,1.01015 -5.05076,3.03046 -17.17259,3.03046 -23.73858,0.50507 -6.56599,-2.52538 -24.74874,-8.08122 -34.85027,-4.54568 -10.10152,3.53553 -16.16244,2.52538 -25.75889,8.08122 -9.59645,5.55584 -10.6066,8.5863 -19.69797,4.04061 -9.09137,-4.54569 2.52538,-8.08122 -21.2132,-8.5863 -23.73859,-0.50507 -39.90103,-2.52538 -55.558394,4.04061 -15.657365,6.56599 -22.728433,8.5863 -22.728433,8.5863 0,0 4.040611,10.10152 6.060916,11.61675 2.020305,1.51523 -2.020305,4.54569 3.030457,4.54569 5.050763,0 9.091373,-2.52538 10.101526,3.53553 1.010152,6.06092 5.050762,7.57615 5.050762,7.57615 0,0 -2.525381,0 -2.020305,3.53553 0.505077,3.53554 5.555839,8.08122 9.59645,7.57615 4.04061,-0.50508 9.091372,-1.51523 12.626906,-4.04061 3.535534,-2.52539 6.565992,-5.05077 6.565992,-5.05077 0,0 2.525383,4.04061 0.505076,6.06092 -2.020305,2.0203 -7.071068,5.55584 -5.050763,8.08122 2.020306,2.52538 2.020306,6.06091 5.555839,5.05076 3.535531,-1.01015 2.525381,-3.53553 6.060911,-3.03046 3.53554,0.50508 5.05077,3.53554 6.06092,7.07107 1.01015,3.53554 6.06092,2.02031 6.06092,2.02031 0,0 2.52538,-1.01016 2.0203,-2.52538 -0.50508,-1.51523 -2.0203,-5.05077 1.01015,-4.54569 3.03046,0.50507 8.5863,3.53553 8.5863,3.53553 0,0 2.52538,2.52538 6.06091,0.50508 3.53554,-2.02031 6.06092,-5.55584 6.06092,-5.55584 0,0 -0.50508,18.18275 0,18.68782 0.50508,0.50508 2.52538,7.07107 5.05076,7.57615 2.52538,0.50507 16.16244,2.0203 16.16244,2.0203 0,0 1.01016,-3.03046 3.53554,3.53554 2.52538,6.56599 1.01015,10.10152 6.06091,10.10152 5.05077,0 11.61676,-2.52538 11.11168,4.54569 -0.50508,7.07106 0,14.14213 -4.54569,17.67767 -4.54568,3.53553 -10.10152,4.04061 -12.12183,7.57614 -2.0203,3.53553 -2.52538,10.10153 -2.52538,10.10153 0,0 -3.53553,2.0203 -1.51523,3.53553 2.02031,1.51523 5.05077,3.03046 3.53554,5.55584 -1.51523,2.52538 -7.07107,4.04061 -7.07107,7.57614 0,3.53554 9.59645,3.03046 9.59645,5.05077 0,2.0203 1.01015,12.12183 1.01015,12.12183 0,0 -2.0203,-1.51523 -3.53553,3.03045 -1.51523,4.54569 -4.54569,6.566 -0.50508,7.07107 4.04061,0.50508 9.59645,1.51523 11.11168,-1.01015 1.51523,-2.52538 5.55584,-5.55584 10.6066,-2.52538 5.05076,3.03046 12.62691,10.6066 14.64721,11.61675 2.02031,1.01015 8.08122,1.51523 13.63706,4.54569 5.55584,3.03046 9.18538,3.78513 11.68396,3.41819 2.33488,-0.34291 12.1887,-1.40091 10.99344,4.62984 -0.48354,2.43975 -1.10305,1.6717 -2.84228,4.46519 -1.73923,2.79349 -6.03294,6.50484 -6.03294,6.50484 0,0 -4.61853,0.0631 -6.13376,4.10373 -1.51523,4.04061 -0.59735,5.16248 2.43311,6.17263 3.03046,1.01016 5.55584,0.50508 6.56599,6.56599 1.01015,6.06092 -4.04061,22.22336 -7.57614,23.73859 -3.53554,1.51523 -7.57615,5.55584 -5.05077,7.07107 2.52538,1.51523 5.55584,0.50507 4.54569,5.05076 -1.01015,4.54569 -3.03046,4.04061 -3.03046,4.04061 0,0 -5.05076,4.04061 -1.01015,5.55584 4.04061,1.51523 4.54569,4.04061 1.51523,5.55584 -3.03046,1.51523 -6.06092,-0.50508 -4.54569,2.52538 1.51523,3.03046 -0.50508,3.53553 2.02031,9.09137 2.52538,5.55584 8.08122,15.15229 8.08122,15.15229 0,0 4.54568,2.02031 9.59645,1.51523 5.05076,-0.50508 13.63706,-2.02031 20.20305,-3.03046 6.56599,-1.01015 12.12183,-7.07107 12.12183,-7.07107 l 0.50507,-4.54568 c 0,0 -5.05076,-3.03046 -1.51523,-5.05077 3.53554,-2.0203 15.15229,-7.07106 19.69798,-5.05076 4.54569,2.02031 10.10152,5.55584 7.57614,7.07107 -2.52538,1.51523 -5.05076,4.04061 -5.05076,4.04061 l 2.52538,1.51523 16.66752,-1.01015 c 0,0 -0.50508,4.54568 4.04061,-0.50508 4.54569,-5.05076 6.06091,-6.56599 10.10152,-6.56599 4.04061,0 13.13199,-1.01015 15.65737,-2.02031 2.52538,-1.01015 2.0203,-2.52538 5.05076,-1.51523 3.03046,1.01016 5.55584,-0.50507 9.59645,3.53554 4.04061,4.04061 8.5863,4.04061 10.6066,4.04061 2.02031,0 4.04061,-5.05076 5.05077,-2.02031 1.01015,3.03046 0.50507,5.05077 0.50507,5.05077 l -6.56599,2.0203 c 0,0 -2.52538,6.56599 -5.05076,6.56599 -2.52538,0 -4.54569,1.51523 -4.54569,1.51523 l 1.01015,3.53554 c 0,0 2.02031,-3.03046 4.04061,0 2.02031,3.03045 10.10153,3.53553 10.10153,3.53553 0,0 -0.50508,-2.02031 7.57614,-3.53553 8.08122,-1.51523 15.15229,-5.05077 16.66752,0.50507 1.51523,5.55584 5.55584,12.12183 11.61675,11.61676 6.06092,-0.50508 4.04061,-3.53554 14.64722,-2.02031 10.6066,1.51523 9.59645,2.02031 12.12183,5.05076 2.52538,3.03046 2.52538,5.05077 9.59645,4.54569 7.07106,-0.50508 13.13198,8.08122 19.19289,8.08122 6.06092,0 22.72844,-0.50508 22.72844,-0.50508 0,0 5.05076,-10.10152 9.59645,-9.59645 4.54568,0.50508 10.6066,-1.51522 13.13198,2.52539 2.52538,4.04061 -2.02031,6.56599 4.04061,7.07106 6.06091,0.50508 15.65736,-1.01015 15.65736,-1.01015 0,0 3.03046,-3.03046 4.04061,-6.06091 1.01016,-3.03046 4.54569,-4.54569 5.05077,-2.52539 0.50507,2.02031 1.51523,3.53554 1.51523,3.53554 0,0 -5.55584,-1.01015 11.11167,-1.01015 16.66752,0 17.67767,-1.01016 17.67767,-1.01016 0,0 4.04061,-6.56599 11.61676,-4.54568 7.57614,2.0203 13.63706,11.61675 20.70812,11.61675 7.07107,0 12.12184,2.52538 13.63706,-1.01015 1.51523,-3.53554 2.02031,-6.06092 5.55584,-7.57615 3.53554,-1.51522 6.56599,-5.55583 6.56599,-5.55583 0,0 5.55584,-7.57615 10.10153,-8.5863 4.54569,-1.01015 6.56599,-14.64721 6.56599,-14.64721 l -1.01015,-5.17704 0.50507,-3.28299 1.51523,-3.78807 c 0,0 -6.43972,-9.21765 -7.07106,-12.50064 -0.63135,-3.283 -2.90419,-4.92449 -6.56599,-6.06092 -3.66181,-1.13642 -7.82869,-2.90418 -9.72272,-11.49048 -1.89404,-8.5863 0.75761,-13.51079 -2.90419,-13.51079 -3.6618,0 -14.64721,0.25254 -15.02602,-3.15673 -0.37881,-3.40926 2.52538,-4.54568 0.12627,-6.18718 -2.39911,-1.6415 1.6415,-4.54569 -2.65165,-6.81853 -4.29315,-2.27285 -13.51079,-10.35407 -13.38452,-13.00572 0.12627,-2.65165 -2.27285,-15.15228 -4.04061,-16.92005 -1.76777,-1.76777 -9.34391,-6.69226 -12.12183,-7.57615 -2.77792,-0.88388 -7.44988,-3.6618 -6.566,-8.33375 0.88389,-4.67196 6.43973,-13.13199 3.15673,-14.26841 -3.28299,-1.13642 -14.14213,-7.70241 -14.14213,-7.70241 l -27.14785,-21.97082 c 0,0 -5.42957,-4.04061 -6.06092,-9.34391 -0.63134,-5.3033 -8.83883,-9.97526 -8.83883,-9.97526 0,0 -2.90419,-12.6269 -4.9245,-13.8896 -2.0203,-1.26269 -40.65864,-44.19417 -41.79506,-44.57298 -1.13642,-0.3788 -10.35406,-8.71256 -10.35406,-8.71256 0,0 -3.15673,-2.02031 -3.91434,-7.95495 -0.75762,-5.93465 -9.84899,-22.60217 -9.84899,-22.60217 0,0 -3.53554,-7.07106 -4.41942,-12.12183 -0.88388,-5.05076 -11.11168,-14.52094 -11.11168,-14.52094 0,0 -2.65165,-6.81853 -3.91434,-12.500638 -1.26269,-5.682108 -2.90419,-9.722718 -4.79822,-9.975256 -1.89404,-0.252538 -7.07107,0.252538 -8.33376,-7.828682 -1.26269,-8.081221 -4.16688,-16.667517 -5.17703,-17.67767 -1.01016,-1.010152 -6.56599,-15.783633 -10.6066,-17.298862 -4.04061,-1.515229 -5.30331,3.409265 -7.19734,-1.38896 -1.89404,-4.798225 -1.76777,-4.671954 -1.76777,-4.671954 z"
               id="path3802"
               inkscape:connector-curvature="0"
               sodipodi:nodetypes="csssssssscssssssscssscssscssssscsscscsscssssscsssscssssssssscsssssscsssscssccssscccsssssssccsccscssssssscssscsscscsssscsccccssssssssssssccscsscscscssssssc" />
          </g>
          <path
             inkscape:connector-curvature="0"
             id="path4251"
             d="m 408.00777,413.00161 c -3.9389,-2.37509 -7.81127,-3.82567 -11.20405,-4.19698 -4.31564,-0.47232 -5.79005,-1.21269 -8.79583,-4.41689 -3.06493,-3.26724 -4.47895,-3.95789 -9.34921,-4.56639 -5.46291,-0.68254 -10.8593,-0.37106 -17.5962,1.01567 -3.86385,0.79533 -7.64988,-2.50882 -10.65245,-9.29663 l -2.09456,-4.73509 -6.50007,0.60698 c -3.57504,0.33384 -9.37722,1.57623 -12.89373,2.76085 -6.53656,2.20201 -10.27055,2.05969 -13.18467,-0.5025 -0.84031,-0.73882 -2.44452,-1.54888 -3.56493,-1.80011 -2.09898,-0.47069 -1.84128,-0.66903 2.83824,-2.1845 1.00083,-0.32411 2.59209,-1.93514 3.53616,-3.58007 0.96586,-1.68292 3.06526,-3.38792 4.80088,-3.89899 2.66993,-0.78618 3.06317,-1.35464 2.92627,-4.23005 -0.20721,-4.35219 -0.83135,-4.82611 -4.07199,-3.09191 -3.49082,1.86807 -5.93565,1.41789 -11.55738,-2.12816 -6.12313,-3.86232 -10.69063,-4.587 -16.88068,-2.67828 -2.75998,0.85104 -8.15631,1.84477 -11.99184,2.20829 -6.07146,0.57542 -7.48299,1.12107 -10.91036,4.21748 -3.84256,3.47153 -4.15675,3.56065 -13.14301,3.72795 -5.06347,0.0943 -9.20617,-0.10135 -9.206,-0.43465 1.9e-4,-0.33333 0.91702,-1.43564 2.03743,-2.4496 2.81735,-2.54967 2.6269,-3.1249 -2.18993,-6.61419 -2.88239,-2.088 -5.42369,-3.06204 -7.98894,-3.06204 -4.52185,0 -14.92163,3.42974 -17.51422,5.776 -1.69096,1.5303 -1.72089,1.90063 -0.32565,4.03004 0.84504,1.28969 1.53643,3.02521 1.53643,3.85672 0,1.97475 -5.66434,6.16619 -10.1855,7.53699 -5.25415,1.59302 -17.40436,3.24546 -23.86362,3.24546 -5.42003,0 -5.74636,-0.15467 -8.05857,-3.81957 -4.29999,-6.81553 -6.83823,-12.44511 -7.70634,-17.09184 -0.80971,-4.33416 -0.73645,-4.55235 1.52856,-4.55235 1.40424,0 2.86742,-0.91253 3.57093,-2.22705 1.04081,-1.94479 0.81944,-2.53025 -1.74663,-4.61921 l -2.93851,-2.39217 2.80101,-2.08631 c 3.88342,-2.89254 3.98301,-8.55138 0.18098,-10.2837 l -2.62003,-1.19377 4.55239,-4.17981 c 3.63573,-3.33818 4.98368,-5.57615 6.69424,-11.11429 2.3415,-7.5809 2.76102,-14.86381 1.04131,-18.07714 -0.6053,-1.13099 -2.69732,-2.72354 -4.64894,-3.53898 -4.75245,-1.98569 -4.36593,-5.2059 0.96221,-8.01656 4.62512,-2.4398 10.89856,-10.07506 10.89856,-13.26437 0,-3.50257 -2.28915,-4.66534 -9.85804,-5.00737 -4.7465,-0.21449 -8.75537,-1.13685 -12.65199,-2.911 -3.13717,-1.42836 -7.55137,-3.09448 -9.80932,-3.70249 -2.30483,-0.62062 -7.15644,-3.60637 -11.06206,-6.80774 -3.82618,-3.13626 -8.07203,-6.12634 -9.43521,-6.64462 -2.83234,-1.07685 -8.43935,0.40145 -10.37673,2.73584 -1.11525,1.34379 -11.16081,2.24477 -11.16081,1.00101 0,-1.74287 3.67619,-7.67368 4.75651,-7.67368 1.00636,0 1.18464,-1.52562 0.74389,-6.36594 -0.78744,-8.64774 -0.81821,-8.70595 -5.01891,-9.49401 -5.17412,-0.97067 -5.49864,-2.99344 -1.12317,-7.00121 4.31192,-3.94956 4.38464,-4.28607 1.57296,-7.27897 -1.71321,-1.82363 -1.91034,-2.66118 -1.01855,-4.32752 0.6082,-1.13643 1.10582,-3.20707 1.10582,-4.60142 0,-3.02303 4.27543,-8.41872 7.42922,-9.37585 7.49628,-2.27501 10.90468,-8.59289 10.90468,-20.21315 0,-6.60971 -1.50717,-7.95994 -8.48217,-7.59888 -5.46037,0.28265 -6.40861,-0.30412 -7.19444,-4.4519 -0.34611,-1.82685 -1.42935,-4.62418 -2.40721,-6.21629 -1.62121,-2.63964 -2.40379,-2.93604 -8.87944,-3.36318 -12.957072,-0.85468 -14.759764,-3.04156 -14.782279,-17.93264 -0.0141,-9.32221 -0.801984,-11.77841 -2.765417,-8.62104 -0.447988,0.72041 -2.09701,2.29334 -3.664493,3.49539 l -2.849967,2.18556 -5.298434,-2.46688 c -2.914138,-1.35679 -6.364259,-2.47137 -7.666935,-2.47684 -2.062684,-0.009 -2.325712,0.41747 -2.0371,3.30034 0.293412,2.93081 0.04295,3.31028 -2.184893,3.31028 -1.589634,0 -2.935769,-0.84138 -3.655353,-2.28472 -3.133375,-6.28493 -6.619771,-7.71566 -11.311079,-4.64179 -2.548148,1.6696 -2.709823,1.64749 -4.547639,-0.62212 -2.583107,-3.19 -2.416003,-4.31309 1.150088,-7.72962 3.078418,-2.94931 3.802009,-5.90121 2.104178,-8.58401 -0.751389,-1.18731 -1.916796,-0.77156 -6.350341,2.26538 -2.986536,2.04575 -7.75947,4.25072 -10.606521,4.89993 -4.503808,1.027 -5.531111,0.94801 -7.905728,-0.6079 -3.181901,-2.08487 -4.676173,-6.43158 -2.642962,-7.68818 1.059799,-0.65499 0.868927,-1.24396 -0.872321,-2.69169 -1.225932,-1.01927 -2.849785,-3.68662 -3.608561,-5.92743 -1.371158,-4.04929 -1.414812,-4.07607 -7.138223,-4.37967 -3.822175,-0.20275 -5.758628,-0.74131 -5.758628,-1.60159 0,-0.71286 -1.4099955,-3.899394 -3.1333233,-7.081178 -2.8985334,-5.35157 -2.9939375,-5.834931 -1.2731877,-6.450564 1.0230746,-0.366025 6.244209,-2.390155 11.60252,-4.498068 19.05139,-7.49465 19.508703,-7.572036 44.240774,-7.486363 29.060805,0.100667 33.669244,0.676932 35.62268,4.454462 1.573162,3.042161 7.835625,6.162692 12.367645,6.162692 1.44299,0 6.36096,-2.031532 10.9288,-4.514516 5.81579,-3.161333 12.11423,-5.473043 21.01298,-7.712375 14.78632,-3.720906 18.75108,-3.591043 35.16406,1.151778 12.00641,3.469463 21.45239,3.915327 29.10432,1.373763 6.67791,-2.218045 15.30445,-1.6548 18.52073,1.209257 2.08876,1.860005 3.58941,2.018448 17.56216,1.854251 18.9571,-0.222768 27.02106,-2.365181 41.56208,-11.042119 5.40524,-3.225419 12.56293,-6.788099 15.90599,-7.917067 5.93426,-2.004029 6.22531,-2.279625 12.2828,-11.63042 7.97135,-12.30518 9.35037,-16.223979 9.64087,-27.396809 0.19645,-7.555645 0.5514,-9.296538 2.07675,-10.185502 1.01189,-0.589725 4.14744,-2.58645 6.96789,-4.4371664 4.39066,-2.8810537 5.25544,-3.1373755 6.01369,-1.7824628 0.55452,0.9908776 2.30933,1.5824759 4.69397,1.5824759 3.50548,0 4.06504,0.4253256 7.03508,5.3473883 4.69695,7.78398 7.86459,15.519864 9.9054,24.190566 2.23474,9.494665 3.5355,11.624739 7.834,12.828624 3.23879,0.907094 3.56953,1.466547 6.96518,11.781411 2.85797,8.681592 4.40623,11.735773 7.80737,15.401153 4.38088,4.72125 7.47088,9.772551 7.47088,12.212853 0,0.768732 2.12988,5.71873 4.73307,10.999996 2.60319,5.28126 6.15538,13.69845 7.89376,18.70486 2.9301,8.43843 3.60658,9.47882 9.272,14.2597 5.95855,5.02824 11.32144,10.5504 36.86189,37.95659 11.04087,11.84742 12.60776,13.9849 14.14125,19.29082 1.30007,4.49828 2.68826,6.79661 5.63957,9.33706 2.33827,2.01273 4.39022,4.95607 5.09494,7.30822 0.65846,2.19774 3.03191,5.73336 5.37039,8.00004 8.60544,8.34116 28.87021,23.89974 35.51089,27.26399 3.78136,1.91569 6.87521,4.12404 6.87521,4.90746 0,0.78341 -0.97646,3.97604 -2.16992,7.09472 -3.03549,7.93226 -1.87314,10.38332 7.31165,15.41806 3.87371,2.12342 7.91495,4.673 8.98052,5.66573 1.80363,1.68034 3.25507,6.4259 4.67815,15.29552 0.57625,3.59159 3.42068,6.94085 12.58514,14.81877 2.98922,2.56958 3.3971,3.53901 3.56493,8.47306 0.16413,4.82545 0.53049,5.74384 2.73589,6.85844 1.4005,0.70781 5.11539,1.29369 8.2553,1.30195 l 5.70895,0.015 0.60556,7.22315 c 0.84789,10.11359 3.08497,14.04442 9.89795,17.39191 4.48579,2.20405 5.86897,3.51858 7.33531,6.97123 0.9939,2.34025 2.6677,5.47224 3.71954,6.95999 1.6115,2.27934 1.85482,4.16141 1.54627,11.96044 -0.42306,10.69287 -2.2735,16.02797 -6.43754,18.56027 -3.69127,2.2448 -20.57532,18.35546 -22.07997,21.06859 -0.97318,1.75479 -2.00326,1.98595 -7.63913,1.7143 -6.75668,-0.32567 -7.94037,-0.84122 -17.55118,-7.64428 -7.41777,-5.25071 -12.09722,-5.83344 -17.46185,-2.17449 -3.74728,2.55584 -5.03431,2.80451 -17.03443,3.29121 -12.66555,0.5137 -13.02753,0.46887 -14.90131,-1.84516 l -1.92045,-2.37163 -2.43468,2.52907 c -1.33908,1.39098 -3.35138,3.76793 -4.47178,5.28209 -1.65426,2.23565 -3.12256,2.87329 -7.81285,3.39293 -7.69812,0.85287 -11.02592,-0.0363 -11.04592,-2.95125 -0.008,-1.24978 -0.36167,-2.8166 -0.78464,-3.4818 -1.21778,-1.91518 -6.05264,-3.37401 -11.18214,-3.37401 -4.34733,0 -5.09731,0.40199 -9.50123,5.09275 l -4.78131,5.09275 -11.56739,-0.003 c -11.45197,-0.003 -11.62744,-0.0388 -17.5867,-3.63218 l 0,4.8e-4 z"
             style="fill:#fefee9;fill-opacity:1;stroke:none" />
        </g>
      </g>
      <g
         id="g4317">
        <path
           style="color:#000000;fill:none;stroke:#838383;stroke-width:1px;stroke-linecap:butt;stroke-linejoin:miter;stroke-miterlimit:4;stroke-opacity:1;stroke-dasharray:none;stroke-dashoffset:0;marker:none;visibility:visible;display:inline;overflow:visible;enable-background:accumulate"
           d="m 305.49971,61.134445 c 0,0 5.44001,4.294747 7.73055,6.298963 2.29053,2.004215 0.85895,6.012647 2.86316,7.157913 2.00422,1.145266 7.44423,-3.722115 8.87581,3.722114 1.43158,7.444229 2.86317,15.747408 7.44423,15.747408 4.58107,0 8.01686,1.431582 8.01686,2.863165 0,1.431582 3.4358,2.004215 5.44002,1.431582 2.00421,-0.572633 8.01686,-2.576848 9.73476,-1.431582 1.7179,1.145266 7.73054,1.717899 6.29896,7.730542 -1.43158,6.01265 -4.00843,6.8716 -5.1537,8.30318 -1.14526,1.43158 -3.72211,2.29053 0.28632,5.1537 4.00843,2.86316 9.44845,4.29475 9.16213,9.16213 -0.28632,4.86738 -0.28632,6.29896 -2.00422,7.44423 -1.7179,1.14526 -7.73054,-0.85895 -9.44844,2.29053 -1.7179,3.14948 -2.57685,8.01686 0.28632,9.16213 2.86316,1.14526 13.17055,1.7179 18.61057,6.87159 5.44001,5.1537 8.01686,6.58528 5.72633,11.16635 -2.29053,4.58106 -4.86738,-2.29054 -6.01265,4.58106 -1.14526,6.8716 -7.15791,14.31583 -5.72633,17.17899 1.43158,2.86317 0,3.72212 2.57685,4.58106 2.57685,0.85895 5.1537,-0.57263 6.8716,1.43159 1.7179,2.00421 10.30739,3.14948 13.17056,3.14948 2.86316,0 8.01686,1.7179 8.87581,3.4358 0.85895,1.7179 2.86316,1.7179 0.57263,7.15791 -2.29053,5.44001 -5.72633,4.86738 -2.86317,8.58949 2.86317,3.72212 2.29054,9.16213 5.44002,10.88003 3.14948,1.7179 4.86738,-2.86316 9.16213,-1.7179 4.29474,1.14527 9.73476,3.14948 12.31161,2.57685 2.57684,-0.57263 3.72211,-4.00843 6.29896,0.28632 2.57685,4.29475 12.59793,13.74319 11.45266,19.75584 -1.14527,6.01264 -2.57685,12.02529 -4.00843,16.03372 -1.43158,4.00843 -6.29896,6.29896 -8.87581,10.30739 -2.57685,4.00844 -7.44423,9.44845 -8.30318,9.73477 -0.85895,0.28631 -2.24685,-0.15035 0.61631,0.13597 2.86317,0.28631 -8.91949,1.58192 -8.91949,1.58192 0,0 -2.57685,-0.28631 -2.86317,-2.57684 -0.28631,-2.29054 1.43159,-8.01687 -3.43579,-6.01265 -4.86738,2.00422 -6.29897,7.15791 -7.15792,9.73476 -0.85895,2.57685 -3.43579,11.73898 -6.01264,13.45688 -2.57685,1.7179 -3.4358,6.29896 -4.29475,6.87159 -0.85895,0.57264 -4.86738,-1.43158 -6.8716,3.14948 -2.00421,4.58107 -5.15369,11.73898 -1.43158,14.02951 3.72212,2.29054 7.15791,7.15792 8.01686,8.5895 0.85895,1.43158 3.4358,5.44001 4.86738,5.72633 1.43159,0.28631 5.44002,7.15791 4.29475,10.59371 -1.14526,3.4358 -3.14948,6.29896 -2.57685,8.58949 0.57264,2.29054 0.28632,12.88425 5.44002,15.4611 5.15369,2.57684 7.15791,0.28631 9.44844,3.14948 2.29053,2.86316 18.32426,5.15369 22.04637,3.72211 3.72212,-1.43158 8.01686,-6.01265 16.03373,-3.4358 8.01686,2.57685 20.61478,8.87582 24.90953,11.73898 4.29475,2.86317 4.29475,4.29475 3.72212,7.15791 -0.57264,2.86317 -3.72212,4.58107 -1.7179,7.73055 2.00421,3.14948 8.01686,6.01264 8.01686,7.15791 0,1.14527 2.57685,4.4379 2.57685,4.4379"
           id="path4272"
           inkscape:connector-curvature="0"
           sodipodi:nodetypes="cssssssssssssssssssssssssssssssssscsssssssssssssssssssc" />
        <path
           style="color:#000000;fill:none;stroke:#838383;stroke-width:1px;stroke-linecap:butt;stroke-linejoin:miter;stroke-miterlimit:4;stroke-opacity:1;stroke-dasharray:none;stroke-dashoffset:0;marker:none;visibility:visible;display:inline;overflow:visible;enable-background:accumulate"
           d="m 278.06063,75.070685 c 0,0 4.16351,-0.16772 5.78316,2.666669 1.61965,2.834389 2.83439,16.196507 -1.21474,19.840721 -4.04912,3.644215 -5.26386,4.858955 -8.09825,4.858955 -2.83439,0 -2.42948,17.41124 -4.85895,22.67511 -2.42948,5.26386 -3.64422,6.4786 -2.42948,13.36212 1.21474,6.88351 4.45404,6.07369 3.2393,10.12281 -1.21474,4.04913 -3.2393,8.90808 -6.4786,6.88352 -3.2393,-2.02456 -2.83439,-6.4786 -5.66878,-4.85895 -2.83439,1.61965 0,3.2393 -2.83439,7.69334 -2.83439,4.45404 -3.64421,8.90808 -8.09825,9.7179 -4.45404,0.80983 -6.07369,-0.40491 -7.69334,2.02457 -1.61965,2.42947 1.61965,3.64421 -0.40491,10.52773 -2.02457,6.88351 -5.26387,8.90807 -4.04913,11.33755 1.21474,2.42948 0.40491,6.4786 -2.02456,6.88352 -2.42948,0.40491 -6.07369,5.26386 -6.07369,5.26386 0,0 4.45403,2.83439 -2.02457,1.21474 -6.4786,-1.61965 -1.21474,-5.26387 -9.7179,-3.2393 -8.50317,2.02456 -16.60142,3.64421 -16.60142,3.64421 0,0 -1.82211,4.25158 -1.01229,3.03685 0.80983,-1.21474 -1.41719,3.44175 -0.20245,5.46632 1.21474,2.02456 3.2393,2.42947 3.2393,7.69334 0,5.26386 -0.40491,9.31299 -8.09825,9.31299 -7.69334,0 -8.09826,2.02456 -11.74247,3.64421 -3.64421,1.61966 -5.26387,-2.02456 -10.52773,-1.21473 -5.26387,0.80982 -7.69334,2.02456 -10.93264,6.88351 -3.2393,4.85895 -7.69334,6.07369 -10.93265,6.07369 -3.2393,0 -10.12281,-0.40491 -11.74246,-4.04912 -1.61965,-3.64422 -0.40492,-4.04913 -6.88352,-4.45404 -6.4786,-0.40492 -8.19948,1.31596 -8.19948,1.31596"
           id="path4274"
           inkscape:connector-curvature="0"
           sodipodi:nodetypes="csssssssssssssscsscssssssssssc" />
        <path
           style="color:#000000;fill:none;stroke:#838383;stroke-width:1px;stroke-linecap:butt;stroke-linejoin:miter;stroke-miterlimit:4;stroke-opacity:1;stroke-dasharray:none;stroke-dashoffset:0;marker:none;visibility:visible;display:inline;overflow:visible;enable-background:accumulate"
           d="m 193.54094,280.85173 c 0,0 14.17927,0.5567 16.60874,-3.89734 2.42948,-4.45404 2.83439,-7.28842 7.69334,-7.28842 4.85896,0 11.74247,-3.23931 14.17195,-4.45404 2.42947,-1.21474 14.98177,0.40491 20.65055,-2.02457 5.66877,-2.42948 6.07368,-8.09825 9.31299,-8.09825 3.2393,0 8.09825,0.80982 8.50316,-1.61965 0.40492,-2.42948 -1.61965,-7.28843 4.04913,-5.66878 5.66878,1.61965 8.50317,5.66878 15.38668,6.4786 6.88352,0.80983 9.71791,2.02457 11.33756,4.45404 1.61965,2.42948 9.7179,4.04913 11.33755,3.2393 1.61965,-0.80982 4.04913,-13.36211 11.33756,-15.38668 7.28842,-2.02456 30.77336,3.2393 35.63231,-4.04912 4.85896,-7.28843 8.90808,-9.71791 14.57686,-9.71791 5.66878,0 5.26386,-2.42947 8.90808,-7.28843 3.64421,-4.85895 4.04913,-13.76703 8.90808,-13.36212 4.85895,0.40492 4.85895,0.40492 4.85895,0.40492"
           id="path4276"
           inkscape:connector-curvature="0"
           sodipodi:nodetypes="csssssssssssssssc" />
        <path
           style="color:#000000;fill:none;stroke:#838383;stroke-width:1px;stroke-linecap:butt;stroke-linejoin:miter;stroke-miterlimit:4;stroke-opacity:1;stroke-dasharray:none;stroke-dashoffset:0;marker:none;visibility:visible;display:inline;overflow:visible;enable-background:accumulate"
           d="m 239.3034,181.59746 c 0,0 10.32527,0.40491 13.96948,3.64421 3.64422,3.2393 9.71791,5.06141 12.34984,5.06141 2.63193,0 19.43581,0.80982 20.853,3.84667 1.4172,3.03684 4.04913,14.77931 9.92036,15.99405 5.87124,1.21474 11.33756,-0.60737 12.14738,-2.42948 0.80983,-1.8221 5.26387,-5.0614 8.50317,-4.65649 3.2393,0.40491 6.27615,6.07369 13.36212,5.26386 7.08597,-0.80982 18.01861,-6.68106 18.82844,-7.69334 0.80982,-1.01228 2.42948,-6.07369 4.45404,-5.26386 2.02456,0.80982 2.22702,3.44176 6.07369,2.83439 3.84667,-0.60737 10.32527,-7.8958 10.32527,-7.8958 l 0,0"
           id="path4278"
           inkscape:connector-curvature="0" />
        <path
           style="color:#000000;fill:none;stroke:#838383;stroke-width:1px;stroke-linecap:butt;stroke-linejoin:miter;stroke-miterlimit:4;stroke-opacity:1;stroke-dasharray:none;stroke-dashoffset:0;marker:none;visibility:visible;display:inline;overflow:visible;enable-background:accumulate"
           d="m 188.10994,311.37507 c 0,0 10.02108,1.14527 11.73898,3.14948 1.7179,2.00422 2.29053,7.73055 5.44001,6.01265 3.14949,-1.7179 2.29054,-0.85895 4.58107,-7.15791 2.29053,-6.29897 9.73476,-16.60636 11.73897,-16.03373 2.00422,0.57263 4.00844,-2.86316 7.44423,4.29475 3.4358,7.15791 -2.00421,7.15791 3.4358,7.15791 5.44002,0 9.44845,-5.1537 11.73898,-3.72211 2.29053,1.43158 0.28631,3.14948 5.44001,3.72211 5.1537,0.57263 10.88003,3.4358 11.45266,4.86738 0.57263,1.43158 4.86738,-0.28631 4.58107,3.14948 -0.28632,3.4358 -1.14527,3.4358 -2.57685,6.58528 -1.43159,3.14948 -2.29053,6.01265 -4.86738,8.30318 -2.57685,2.29053 -5.72633,10.59371 -1.7179,12.02529 4.00843,1.43159 11.73897,2.00422 14.02951,2.29054 2.29053,0.28631 4.58106,0.85895 4.58106,0.85895 0,0 -3.14948,-4.86738 1.43158,-4.86738 4.58107,0 12.0253,-3.72212 12.88425,-6.8716 0.85895,-3.14948 -2.00422,-4.58106 0,-7.15791 2.00421,-2.57685 3.43579,-7.15792 5.72633,-5.44002 2.29053,1.7179 4.29474,3.4358 6.87159,2.57685 2.57685,-0.85895 3.72212,-6.29896 8.5895,-5.72633 4.86738,0.57263 11.16634,4.29475 12.88424,6.8716 1.7179,2.57685 4.00843,17.4653 7.73055,18.61057 3.72211,1.14527 4.86738,2.00422 7.73054,3.4358 2.86317,1.43158 7.44423,4.29475 9.44845,-1.14527 2.00421,-5.44001 -4.00844,-8.30318 4.58106,-8.87581 8.58949,-0.57263 8.01686,-2.29053 12.59793,3.4358 4.58106,5.72633 11.16634,6.58528 12.31161,8.30318 1.14526,1.7179 4.58106,-0.28632 10.30739,3.14948 5.72633,3.4358 6.01265,4.29475 6.01265,4.29475"
           id="path4280"
           inkscape:connector-curvature="0" />
        <path
           style="color:#000000;fill:none;stroke:#838383;stroke-width:1px;stroke-linecap:butt;stroke-linejoin:miter;stroke-miterlimit:4;stroke-opacity:1;stroke-dasharray:none;stroke-dashoffset:0;marker:none;visibility:visible;display:inline;overflow:visible;enable-background:accumulate"
           d="m 312.08499,262.34845 c 0,0 2.86316,-3.65562 3.72211,6.07914 0.85895,9.73477 4.00844,10.02108 3.72212,17.75163 -0.28632,7.73054 -5.72633,14.31582 -7.15791,15.17477 -1.43159,0.85895 -2.00422,-2.29053 -2.29054,3.72212 -0.28631,6.01264 0,14.31582 0,14.31582"
           id="path4282"
           inkscape:connector-curvature="0"
           sodipodi:nodetypes="cssssc" />
        <path
           style="color:#000000;fill:none;stroke:#838383;stroke-width:1px;stroke-linecap:butt;stroke-linejoin:miter;stroke-miterlimit:4;stroke-opacity:1;stroke-dasharray:none;stroke-dashoffset:0;marker:none;visibility:visible;display:inline;overflow:visible;enable-background:accumulate"
           d="m 274.86384,346.592 c 0,0 -3.43579,5.44001 0.85895,7.44423 4.29475,2.00421 18.32426,-1.14527 19.75584,-0.28632 1.43158,0.85895 3.14948,-0.85895 4.00843,4.58107 0.85895,5.44001 0.25158,8.88177 0.25158,8.88177"
           id="path4284"
           inkscape:connector-curvature="0"
           sodipodi:nodetypes="csssc" />
        <path
           style="color:#000000;fill:none;stroke:#838383;stroke-width:1px;stroke-linecap:butt;stroke-linejoin:miter;stroke-miterlimit:4;stroke-opacity:1;stroke-dasharray:none;stroke-dashoffset:0;marker:none;visibility:visible;display:inline;overflow:visible;enable-background:accumulate"
           d="m 420.29937,281.40843 c 0,0 0.40491,2.42948 5.26386,3.2393 4.85895,0.80983 20.24563,0.40492 24.29476,2.42948 4.04913,2.02456 5.66878,2.42948 8.90808,3.2393 3.2393,0.80983 8.09825,-1.21474 8.09825,-5.66878 0,-4.45403 1.21474,-9.31299 3.23931,-10.52772 2.02456,-1.21474 9.31299,-2.02457 11.33755,2.02456 2.02456,4.04913 0.80983,7.28843 5.26387,8.09825 4.45403,0.80983 11.33755,0 13.76703,4.04913 2.42947,4.04913 4.85895,9.7179 2.83439,12.55229 -2.02457,2.83439 -6.47861,9.31299 -10.12282,10.52773 -3.64422,1.21474 -8.09826,-0.80982 -12.14738,3.2393 -4.04913,4.04913 -11.74247,17.00634 -12.14738,20.24564 -0.40492,3.2393 1.61965,7.28843 1.61965,7.28843 0,0 -0.80983,0 -0.80983,4.45404 0,4.45404 4.04913,8.09825 7.28843,11.74246 3.2393,3.64422 6.07369,2.42948 5.26387,7.69334 -0.80983,5.26387 0,7.69335 -2.02457,14.57686 -2.02456,6.88352 -4.45404,9.31299 -4.45404,9.31299"
           id="path4286"
           inkscape:connector-curvature="0" />
        <path
           style="color:#000000;fill:none;stroke:#838383;stroke-width:1px;stroke-linecap:butt;stroke-linejoin:miter;stroke-miterlimit:4;stroke-opacity:1;stroke-dasharray:none;stroke-dashoffset:0;marker:none;visibility:visible;display:inline;overflow:visible;enable-background:accumulate"
           d="m 482.25101,364.41553 c 0,0 2.22702,-4.25158 4.25158,-7.49088 2.02456,-3.2393 2.02456,-6.07369 9.51545,-10.12282 7.49088,-4.04913 8.90808,-4.45404 9.92036,-0.80982 1.01228,3.64421 2.02456,5.87123 1.82211,9.31299 -0.20246,3.44176 1.41719,19.63826 3.64421,21.46037 2.22702,1.82211 6.07369,2.22702 8.09825,4.04913 2.02457,1.8221 4.45404,4.85895 6.27615,6.27614 1.82211,1.4172 1.69123,19.2888 1.69123,19.2888"
           id="path4288"
           inkscape:connector-curvature="0"
           sodipodi:nodetypes="csssssssc" />
        <path
           style="color:#000000;fill:none;stroke:#838383;stroke-width:1px;stroke-linecap:butt;stroke-linejoin:miter;stroke-miterlimit:4;stroke-opacity:1;stroke-dasharray:none;stroke-dashoffset:0;marker:none;visibility:visible;display:inline;overflow:visible;enable-background:accumulate"
           d="m 495.41067,309.75232 c 0,0 1.41719,2.63193 6.27614,3.44176 4.85896,0.80982 7.8958,1.41719 11.94493,-2.63193 4.04913,-4.04913 7.08597,-7.69334 11.94492,-7.49089 4.85896,0.20246 20.95424,0.7086 20.95424,0.7086 l -0.20246,0 0.10123,0"
           id="path4290"
           inkscape:connector-curvature="0"
           sodipodi:nodetypes="csssccc" />
        <path
           style="color:#000000;fill:none;stroke:#838383;stroke-width:1px;stroke-linecap:butt;stroke-linejoin:miter;stroke-miterlimit:4;stroke-opacity:1;stroke-dasharray:none;stroke-dashoffset:0;marker:none;visibility:visible;display:inline;overflow:visible;enable-background:accumulate"
           d="m 500.26962,287.07722 c 0,0 -2.22702,2.22701 1.61965,-1.82212 3.84667,-4.04912 8.70562,-3.64421 10.73019,-3.84667 2.02456,-0.20245 4.85895,-1.01228 6.07369,-3.84667 1.21474,-2.83439 3.44175,-6.98474 3.44175,-6.98474"
           id="path4292"
           inkscape:connector-curvature="0"
           sodipodi:nodetypes="csssc" />
        <path
           style="color:#000000;fill:none;stroke:#838383;stroke-width:1px;stroke-linecap:butt;stroke-linejoin:miter;stroke-miterlimit:4;stroke-opacity:1;stroke-dasharray:none;stroke-dashoffset:0;marker:none;visibility:visible;display:inline;overflow:visible;enable-background:accumulate"
           d="m 399.85128,199.81853 c 0,0 2.42947,-7.08597 5.87123,-7.8958 3.44176,-0.80983 7.49088,-0.80983 9.7179,0.20246 2.22702,1.01228 3.2393,1.8221 6.47861,1.8221 3.2393,0 11.94492,-4.04912 13.36211,-5.46632 1.4172,-1.41719 25.09851,-0.39883 25.09851,-0.39883"
           id="path4294"
           inkscape:connector-curvature="0"
           sodipodi:nodetypes="cssssc" />
        <path
           style="color:#000000;fill:none;stroke:#838383;stroke-width:1px;stroke-linecap:butt;stroke-linejoin:miter;stroke-miterlimit:4;stroke-opacity:1;stroke-dasharray:none;stroke-dashoffset:0;marker:none;visibility:visible;display:inline;overflow:visible;enable-background:accumulate"
           d="m 359.61353,109.80825 c 0,0 -1.28842,2.86317 6.01265,3.14948 7.30107,0.28632 9.5916,-2.57685 13.45687,-3.14948 3.86527,-0.57263 17.72098,-0.67493 17.72098,-0.67493"
           id="path4296"
           inkscape:connector-curvature="0"
           sodipodi:nodetypes="cssc" />
        <path
           style="color:#000000;fill:none;stroke:#838383;stroke-width:1px;stroke-linecap:butt;stroke-linejoin:miter;stroke-miterlimit:4;stroke-opacity:1;stroke-dasharray:none;stroke-dashoffset:0;marker:none;visibility:visible;display:inline;overflow:visible;enable-background:accumulate"
           d="m 365.48302,131.99778 c 0,0 1.86106,2.00421 3.29264,-0.28632 1.43158,-2.29053 9.44844,-3.72211 11.3095,-3.00632 1.86106,0.71579 3.86527,-0.28632 6.72844,-1.7179 2.86316,-1.43158 13.0274,-4.00843 14.17266,-3.14948 1.14527,0.85895 1.67704,1.25778 1.67704,1.25778"
           id="path4298"
           inkscape:connector-curvature="0"
           sodipodi:nodetypes="cssssc" />
        <path
           style="color:#000000;fill:none;stroke:#838383;stroke-width:1px;stroke-linecap:butt;stroke-linejoin:miter;stroke-miterlimit:4;stroke-opacity:1;stroke-dasharray:none;stroke-dashoffset:0;marker:none;visibility:visible;display:inline;overflow:visible;enable-background:accumulate"
           d="m 213.3058,77.740802 c 0,0 -13.45688,6.871596 -12.59793,14.602142 0.85895,7.730546 1.7179,17.751626 3.72211,19.755836 2.00422,2.00422 6.8716,-3.4358 6.8716,4.00843 0,7.44423 -2.00422,10.3074 -1.43158,12.31161 0.57263,2.00422 7.73054,10.59371 8.58949,15.46109 0.85895,4.86739 -2.05631,11.15196 -2.05631,11.15196"
           id="path4300"
           inkscape:connector-curvature="0"
           sodipodi:nodetypes="csssssc" />
        <path
           style="color:#000000;fill:none;stroke:#838383;stroke-width:1px;stroke-linecap:butt;stroke-linejoin:miter;stroke-miterlimit:4;stroke-opacity:1;stroke-dasharray:none;stroke-dashoffset:0;marker:none;visibility:visible;display:inline;overflow:visible;enable-background:accumulate"
           d="m 120.31942,166.02752 c 0,0 -2.0707,-3.25072 2.79668,-4.10967 4.86738,-0.85895 9.44844,-4.58106 8.87581,-6.87159 -0.57263,-2.29053 -4.29475,-2.86317 -3.14948,-7.44423 1.14526,-4.58106 4.58106,-6.01265 6.58528,-3.72212 2.00421,2.29054 4.58106,6.29897 7.44423,6.01265 2.86316,-0.28632 8.30317,-1.14526 10.30739,3.4358 2.00422,4.58106 9.44844,4.29475 12.59793,4.00843 3.14948,-0.28632 8.01686,-0.57263 10.88002,-1.43158 2.86317,-0.85895 6.29897,0.57263 8.01687,2.00421 1.71789,1.43159 0,7.15792 4.29474,7.15792 4.29475,0 6.01265,-2.00422 10.88003,-3.4358 4.86738,-1.43158 5.72633,-7.15791 5.72633,-7.15791 0,0 -8.01686,-5.72633 1.7179,-3.14949 9.73476,2.57685 11.45266,6.8716 11.45266,6.8716 0,0 -0.57263,4.29475 4.86738,1.14527 5.44001,-3.14949 10.02108,-4.58107 10.02108,-4.58107 l 7.44423,3.4358 1.14526,5.72633 0.28632,4.29475"
           id="path4302"
           inkscape:connector-curvature="0"
           sodipodi:nodetypes="cssssssssssscscscccc" />
        <path
           style="color:#000000;fill:none;stroke:#838383;stroke-width:1px;stroke-linecap:butt;stroke-linejoin:miter;stroke-miterlimit:4;stroke-opacity:1;stroke-dasharray:none;stroke-dashoffset:0;marker:none;visibility:visible;display:inline;overflow:visible;enable-background:accumulate"
           d="m 95.091815,139.37131 c 0,0 -1.466318,-6.65774 2.255796,-6.94406 3.722119,-0.28631 11.166349,-0.85895 12.025289,-4.00843 0.85895,-3.14948 0.85895,-7.15791 2.00422,-10.30739 1.14527,-3.14948 1.14527,-6.58528 4.58106,-6.58528 3.4358,0 4.58107,-0.85895 6.01265,-3.4358 1.43158,-2.57685 3.72212,-4.29475 5.44001,-4.58106 1.7179,-0.28632 6.01265,-3.14948 7.15792,-5.1537 1.14526,-2.004215 -0.57264,-6.585279 2.86316,-7.730545 3.4358,-1.145266 8.30318,0.858949 8.30318,0.858949 0,0 11.16634,4.294748 15.17478,3.722115 4.00843,-0.572633 9.44844,0 10.30739,-2.290532 0.85895,-2.290532 7.44423,-3.435798 7.44423,-3.435798 0,0 13.74319,-1.145266 16.03372,-0.85895 2.29053,0.286317 5.72633,2.290532 5.72633,2.290532"
           id="path4304"
           inkscape:connector-curvature="0"
           sodipodi:nodetypes="csssssssscsscsc" />
      </g>
    </g>
  </g>
</svg>
